<?xml version="1.0" encoding="UTF-8" standalone="no"?><!DOCTYPE svg PUBLIC "-//W3C//DTD SVG 1.1//EN" "http://www.w3.org/Graphics/SVG/1.1/DTD/svg11.dtd"><svg width="100%" height="100%" viewBox="0 0 105 105" version="1.1" xmlns="http://www.w3.org/2000/svg" xmlns:xlink="http://www.w3.org/1999/xlink" xml:space="preserve" xmlns:serif="http://www.serif.com/" style="fill-rule:evenodd;clip-rule:evenodd;stroke-linejoin:round;stroke-miterlimit:2;"><path d="M21.39,4.78c7.718,-3.345 17.829,-4.78 30.81,-4.78c39.15,0 52.2,13.05 52.2,52.2c0,39.15 -13.05,52.2 -52.2,52.2c-39.15,0 -52.2,-13.05 -52.2,-52.2c0,-19.515 3.243,-32.545 11.344,-40.706c1.401,-3.293 2.907,-5.582 3.424,-6.664c0.164,-0.344 0.33,-0.599 0.465,-0.778l0.688,-0.698l1.332,-0.646l1.2,-0.088l1.099,0.289l0.868,0.545l0.803,0.954c0.046,0.077 0.1,0.199 0.167,0.371Zm34.875,51.771c-0.128,2.259 -0.627,2.14 -0.738,3.126c-0.066,0.59 0.397,-0.017 5.405,0.09c1.955,0.042 2.293,0.796 3.235,-0.498c0.232,-0.318 4.293,-4.721 1.948,-10.603c-1.348,-3.382 -3.676,-3.837 -3.889,-3.556c-1.118,1.475 -1.11,2.131 -4.227,4.893c-1.892,1.676 -3.511,1.168 -2.583,3.188c0.729,1.586 0.566,1.628 0.848,3.36Zm4.56,-1.921c-0.148,2.529 -0.987,4.113 -1.969,2.359c-1.573,-2.81 0.58,-10.116 1.893,-4.531c0.04,0.169 0.052,0.223 0.076,2.172Zm-26.878,-3.839c0.271,5.435 8.756,12.042 17.887,9.925c0.741,-0.172 2.28,-0.158 2.553,-3.932c0.348,-4.81 -6.527,-8.976 -12.364,-11.863c-3.383,-1.673 -3.959,-1.278 -4.823,-0.348c-2.093,2.254 -3.058,3.561 -3.253,6.217Zm11.999,4.077c-0.028,0.234 -0.515,4.227 -2.019,2.142c-1.882,-2.608 0.551,-11.051 1.956,-5.274c0.057,0.233 0.034,0.234 0.063,3.133Zm-19.682,-28.076c0.557,9.346 -1.409,9.808 -0.644,9.914c0.513,0.071 0.337,-0.744 6.265,-1.632c0.811,-0.121 0.643,-0.625 3.389,-1.237c1.61,-0.359 0.758,-1.022 0.059,-2.521c-3.952,-8.474 -9.59,-13.215 -11.202,-14.987c-1.715,-1.884 0.508,0.855 1.705,7.355c0.286,1.551 0.22,1.546 0.429,3.107Zm51.712,46.911c7.716,0.086 15.874,-6.125 5.781,-9.536c-5.283,-1.786 -17.259,-1.429 -15.763,5.08c0.275,1.196 3.241,4.294 9.982,4.456Zm-10.088,-42.96c2.852,0.567 2.836,1.937 3.548,1.257c6.122,-5.851 7.311,-10.218 7.274,-10.26c-0.121,-0.141 -11.076,2.211 -15.028,7.293c-2.491,3.204 -2.136,3.068 -1.809,3.116c0.263,0.039 1.124,-0.614 2.648,-1.08c1.649,-0.504 1.662,-0.341 3.367,-0.326Zm-2.392,-10.064c-4.28,0.091 -4.989,0.597 -12.638,6.217c-2.117,1.555 1.242,1.001 1.347,0.999c3.719,-0.076 5.648,2.91 6.417,1.942c2.283,-2.875 2.326,-4.261 10.376,-7.647c0.851,-0.358 1.298,-0.218 0.986,-0.687c-0.055,-0.082 -2.422,-0.495 -2.633,-0.532c-1.911,-0.333 -1.898,-0.288 -3.855,-0.292Zm-47.684,-14.113c-1.286,2.454 -6.508,9.855 -5.678,20.476c0.655,8.38 9.22,13.963 9.832,13.114c2.551,-3.539 2.724,-5.289 2.602,-12.165c-0.17,-6.348 -2.41,-11.311 -3.456,-13.927c-1.979,-4.948 -2.552,-7.127 -2.841,-7.756c-0.139,-0.303 -0.212,-0.247 -0.345,0.031c-0.034,0.07 -0.072,0.146 -0.114,0.227Zm-9.009,57.545c0,0.059 0.002,0.11 0.005,0.154c0.063,0.773 0.717,-0.718 3.345,-2.522c4.55,-3.123 9.072,-2.315 7.925,-1.168c-1.061,1.061 -2.853,2.453 -3.608,4.837c-0.172,0.541 0.051,1.014 0.301,0.936c0.456,-0.142 3.561,-2.022 6.675,-0.12c0.745,0.455 3.367,2.887 -0.244,6.59c-3.286,3.37 -7.406,6.145 -10.17,8.053c4.111,7.337 9.841,9.747 10.712,10.079c0.485,-0.383 2.618,-2.75 6.899,-5.673c3.882,-2.651 4.574,-2.606 4.073,-2.969c-1.17,-0.847 -1.301,-0.64 -3.384,-2.377c-3.107,-2.59 -4.944,-5.832 -3.559,-4.598c6.183,5.508 9.371,5.594 16.83,6.962c1.414,0.259 1.717,-0.07 2.541,1.437c5.756,10.529 10.255,8.88 8.933,10.205c-0.955,0.957 -3.171,1.201 -2.377,1.538c0.579,0.245 5.54,-0.084 5.605,0.163c0.278,1.071 -1.95,1.959 -2.172,2.048c-1.478,0.589 2.138,1.026 5.03,-0.01c7.003,-2.509 10.994,-7.979 8.329,-6.424c-4.729,2.76 -11.402,1.867 -15.724,-1.206c-7.407,-5.265 -9.755,-13.184 -10.476,-13.696c-0.978,-0.694 -1.178,-0.38 -5.261,-3.393c-9.458,-6.982 -9.431,-10.512 -11.447,-10.76c-1.611,-0.198 -3.67,-1.907 0.043,-4.864c1.014,-0.807 -0.16,-1.06 -1.509,-1.434c-4.489,-1.244 -7.045,0.752 -5.961,-0.532c1.298,-1.537 7.828,-2.58 10.029,0.487c1.192,1.661 -0.579,3.06 -0.787,3.224c-0.514,0.406 -1.034,0.361 -0.585,0.793c0.143,0.138 1.815,-0.363 8.191,3.777c0.534,0.347 0.51,0.34 1.071,0.673c1.328,0.788 -0.832,0.499 -0.914,0.488c-0.346,-0.046 -3.098,-0.813 -4.085,-1.241c-0.06,-0.026 -2.195,-0.951 -0.778,0.247c1.923,1.625 3.31,5.01 12.982,10.594c1.74,1.004 4.608,11.599 13.487,15.525c6.438,2.847 11.829,-0.966 12.662,-1.555c3.147,-2.226 4.477,-4.133 10.624,-3.869c1.758,0.076 9.465,3.005 12.655,-0.659c1.198,-1.376 1.788,-5.219 -1.908,-9.001c-2.938,-3.006 -3.276,-3.34 -3.915,-2.603c-4.098,4.727 -16.589,5.836 -22.117,-0.394c-1.472,-1.659 -1.74,-5.364 0.244,-7.804c0.707,-0.869 -0.817,-1.085 -4.381,-1.813c-1.293,-0.264 -4.207,-0.288 -4.574,-0.291c-3.982,-0.033 -8.608,1.01 -9.342,1.176c-4.224,0.952 -4.374,1.524 -4.409,1.161c-0.032,-0.335 0.874,-1.078 1.973,-1.509c0.253,-0.099 0.079,-0.185 0.103,-0.241l-0.105,-0.165c-7.709,-0.126 -19.858,-9.761 -10.743,-18.256c0.595,-0.555 1.094,-0.564 0.636,-0.897c-0.258,-0.187 -5.13,0.196 -6.398,2.332c-0.897,1.511 -1.082,-2.937 5.711,-4.439c5.847,-1.293 16.146,6.393 17.68,8.339c0.058,0.074 0.786,1.548 0.71,-0.094c-0.1,-2.171 -0.12,-2.162 -0.772,-3.856c-0.116,-0.301 0.242,-0.415 0.31,-0.346c2.205,2.271 1.458,5.985 2.196,5.56c2.395,-1.38 6.882,-16.02 12.079,-14.408c1.33,0.413 2.199,3.252 0.942,2.233c-2.113,-1.712 -5.661,4.302 -4.968,4.703c1.138,0.659 2.386,0.871 4.121,4.012c3.081,5.574 -0.404,11.088 -0.914,11.895c-0.568,0.899 -1.154,1.381 -0.618,1.674c0.737,0.404 0.774,0.31 2.179,1.43c0.541,0.432 1.253,-0.303 2.572,-0.709c1.819,-0.56 2.251,-0.753 1.765,-2.605c-0.188,-0.714 -0.947,-1.147 0.151,-1.499c0.615,-0.197 3.26,-0.74 4.833,-0.46c1.91,0.34 0.309,-1.81 -1.512,-2.966c-2.54,-1.611 -6.036,-1.729 -4.286,-2.327c0.444,-0.152 2.449,-0.072 2.662,-0.063c0.487,0.019 0.895,0.256 1.759,-2.245c0.061,-0.175 1.085,-3.612 0.43,-3.323c-0.316,0.14 0.048,0.685 -3.596,2.398c-2.007,0.944 -4.623,1.415 -3.215,-0.118c0.753,-0.819 2.031,-3.897 2.087,-4.97c0.255,-4.881 -1.05,-14.953 -10.254,-9.008c-6.408,4.139 -6.235,8.079 -6.821,7.5c-0.218,-0.215 0.115,-2.754 2.183,-5.393c0.065,-0.083 0.603,-0.712 0.655,-0.773c0.484,-0.566 -0.087,-0.581 -1.219,-0.763c-1.858,-0.299 -3.679,0.316 -4.078,0.54c-2.283,1.277 3.047,-3.198 5.748,-3.26c1.075,-0.025 1.333,-0.281 1.043,-0.606c-2.763,-3.094 -8.21,-2.186 -8.976,-2.013c-1.049,0.236 -1.151,0.412 -1.244,0.124c-0.179,-0.553 -0.263,-4.149 4.365,-5.151c0.081,-0.018 2.996,-1.673 2.808,-1.978c-0.011,-0.018 -3.906,0.478 -4.478,0.569c-9.306,1.472 -5.414,11.124 -7.094,8.139c-0.861,-1.529 -0.735,-3.523 -1.41,-1.915c-1.207,2.874 -3.274,4.03 -3.666,4.25c-1.565,0.875 2.478,0.729 8.269,6.913c0.658,0.703 0.537,0.767 2.693,4.027c1.312,1.983 -1.275,-0.476 -1.36,-0.557c-6.198,-5.893 -10.709,-8.238 -12.784,-8.222c-1.09,0.008 -2.038,-0.101 -1.258,0.665c0.929,0.912 0.503,1.181 0.304,1.118c-10.205,-3.23 -16.664,4.336 -9.066,11.97c0.959,0.963 1.782,1.775 1.938,1.928c2.118,2.087 -3.781,-1.293 -5.256,-3.385c-2.964,-4.208 -0.993,-5.726 -1.864,-6.289c-0.141,-0.091 -3.668,-1.584 -6.672,-4.879c-0.604,-0.663 -0.628,-0.085 -0.616,-0.037c2.683,10.757 9.35,10.726 7.811,11.411c-0.146,0.065 -6.079,-1.325 -9.025,-3.115c-0.065,-0.039 -1.167,-0.709 -0.932,-0.148c1.933,4.615 5.042,5.44 5.658,5.603c3.582,0.951 -8.293,-0.777 -8.672,13.378c-0.001,0.04 -0.002,0.077 -0.002,0.112Z"/></svg>